<svg width="62.000000" height="62.000000" viewBox="0 0 62 62" fill="none" xmlns="http://www.w3.org/2000/svg" xmlns:xlink="http://www.w3.org/1999/xlink">
	<desc>
			Created with Pixso.
	</desc>
	<defs/>
	<g opacity="0.580000"/>
	<path id="Vector" d="M26.4167 50.5L26.4167 56.25Q26.4167 56.3559 26.3822 56.449Q26.3394 56.5645 26.2436 56.6603Q26.1478 56.756 26.0324 56.7988Q25.9393 56.8333 25.8333 56.8333Q25.7274 56.8333 25.6343 56.7988Q25.5189 56.756 25.4231 56.6603Q25.3273 56.5645 25.2845 56.449Q25.25 56.3559 25.25 56.25L25.25 50.5L26.4167 50.5ZM28.4167 50.5L28.4167 56.25C28.4167 57.6708 27.2542 58.8333 25.8333 58.8333C24.4125 58.8333 23.25 57.6708 23.25 56.25L23.25 48.5L28.4167 48.5L28.4167 50.5Z" fill="#FFFFFF" fill-opacity="1.000000" fill-rule="evenodd"/>
	<path id="Vector" d="M36.75 50.5L36.75 56.25Q36.75 56.3559 36.7155 56.449Q36.6727 56.5645 36.5769 56.6603Q36.4811 56.756 36.3657 56.7988Q36.2726 56.8333 36.1666 56.8333Q36.0607 56.8333 35.9676 56.7988Q35.8522 56.756 35.7564 56.6603Q35.6606 56.5645 35.6178 56.449Q35.5833 56.3559 35.5833 56.25L35.5833 50.5L36.75 50.5ZM38.75 50.5L38.75 56.25C38.75 57.6708 37.5875 58.8333 36.1666 58.8333C34.7458 58.8333 33.5833 57.6708 33.5833 56.25L33.5833 48.5L38.75 48.5L38.75 50.5Z" fill="#FFFFFF" fill-opacity="1.000000" fill-rule="evenodd"/>
	<path id="Vector" d="M43.9166 41.3333L43.9166 28.4167C43.9166 25.575 41.5916 23.25 38.75 23.25L23.25 23.25C20.4083 23.25 18.0833 25.575 18.0833 28.4167L18.0833 41.3333C18.0833 44.175 20.4083 46.5 23.25 46.5L38.75 46.5C41.5916 46.5 43.9166 44.175 43.9166 41.3333ZM41.9166 28.4167L41.9166 41.3333Q41.9166 41.9591 41.7016 42.4993Q41.469 43.0838 40.9847 43.5681Q40.5004 44.0524 39.9159 44.285Q39.3757 44.5 38.75 44.5L23.25 44.5Q22.6242 44.5 22.084 44.285Q21.4995 44.0524 21.0152 43.5681Q20.5309 43.0838 20.2983 42.4993Q20.0833 41.9591 20.0833 41.3333L20.0833 28.4167Q20.0833 27.7909 20.2983 27.2507Q20.5309 26.6662 21.0152 26.1819Q21.4995 25.6976 22.084 25.465Q22.6242 25.25 23.25 25.25L38.75 25.25Q40.3333 25.25 41.125 26.0417Q41.9166 26.8333 41.9166 28.4167Z" fill="#FFFFFF" fill-opacity="1.000000" fill-rule="evenodd"/>
	<path id="Vector" d="M12.9167 38.7501L12.9167 28.4167C12.9167 26.9958 11.7542 25.8334 10.3333 25.8334C8.9125 25.8334 7.75 26.9958 7.75 28.4167L7.75 38.7501C7.75 40.1709 8.9125 41.3334 10.3333 41.3334C11.7542 41.3334 12.9167 40.1709 12.9167 38.7501ZM10.9167 28.4167L10.9167 38.7501Q10.9167 38.856 10.8822 38.9491Q10.8394 39.0645 10.7436 39.1603Q10.6478 39.2561 10.5324 39.2989Q10.4393 39.3334 10.3333 39.3334Q10.2274 39.3334 10.1343 39.2989Q10.0189 39.2561 9.92307 39.1603Q9.82728 39.0645 9.78451 38.9491Q9.75 38.856 9.75 38.7501L9.75 28.4167Q9.75 28.3108 9.78451 28.2177Q9.82728 28.1022 9.92307 28.0065Q10.0189 27.9106 10.1343 27.8679Q10.2274 27.8334 10.3333 27.8334Q10.4393 27.8334 10.5324 27.8679Q10.6478 27.9106 10.7436 28.0065Q10.8394 28.1022 10.8822 28.2177Q10.9167 28.3108 10.9167 28.4167Z" fill="#FFFFFF" fill-opacity="1.000000" fill-rule="evenodd"/>
	<path id="Vector" d="M54.25 38.7501L54.25 28.4167C54.25 26.9958 53.0875 25.8334 51.6666 25.8334C50.2458 25.8334 49.0833 26.9958 49.0833 28.4167L49.0833 38.7501C49.0833 40.1709 50.2458 41.3334 51.6666 41.3334C53.0875 41.3334 54.25 40.1709 54.25 38.7501ZM52.25 28.4167L52.25 38.7501Q52.25 38.856 52.2155 38.9491Q52.1727 39.0645 52.0769 39.1603Q51.9811 39.2561 51.8657 39.2989Q51.7726 39.3334 51.6666 39.3334Q51.5607 39.3334 51.4676 39.2989Q51.3522 39.2561 51.2564 39.1603Q51.1606 39.0645 51.1178 38.9491Q51.0833 38.856 51.0833 38.7501L51.0833 28.4167Q51.0833 28.3108 51.1178 28.2177Q51.1606 28.1022 51.2564 28.0065Q51.3522 27.9106 51.4676 27.8679Q51.5607 27.8334 51.6666 27.8334Q51.7726 27.8334 51.8657 27.8679Q51.9811 27.9106 52.0769 28.0065Q52.1727 28.1022 52.2155 28.2177Q52.25 28.3108 52.25 28.4167Z" fill="#FFFFFF" fill-opacity="1.000000" fill-rule="evenodd"/>
	<path id="Vector" d="M37.2001 19.6333L24.8 19.6333C22.5266 19.6333 20.6667 17.7733 20.6667 15.4999C20.6667 9.79077 25.2909 5.16663 31 5.16663C36.7092 5.16663 41.3334 9.79077 41.3334 15.4999C41.3334 17.7733 39.4734 19.6333 37.2001 19.6333ZM37.6581 17.5837Q37.4346 17.6333 37.2001 17.6333L24.8 17.6333Q24.5654 17.6333 24.342 17.5837Q24.1557 17.5423 23.9771 17.4664Q23.8193 17.3994 23.6758 17.3093Q23.4707 17.1806 23.2951 17.0049Q23.1195 16.8293 22.9908 16.6243Q22.9007 16.4808 22.8336 16.3229Q22.7577 16.1442 22.7163 15.9579Q22.6667 15.7345 22.6667 15.4999Q22.6667 14.5321 22.8792 13.6133Q23.0394 12.9205 23.3205 12.2557Q23.6135 11.5626 24.0186 10.9429Q24.4875 10.2256 25.1066 9.60657Q25.7257 8.98749 26.443 8.51855Q27.0627 8.11346 27.7557 7.8205Q28.4206 7.53937 29.1134 7.37915Q30.0322 7.16663 31 7.16663Q31.9679 7.16663 32.8866 7.37915Q33.5794 7.53937 34.2443 7.8205Q34.9373 8.11346 35.557 8.51855Q36.2743 8.98749 36.8934 9.60657Q37.5125 10.2257 37.9814 10.943Q38.3865 11.5627 38.6795 12.2557Q38.9606 12.9205 39.1208 13.6132Q39.3334 14.532 39.3334 15.4999Q39.3334 15.7345 39.2837 15.958Q39.2423 16.1443 39.1664 16.3229Q39.0994 16.4808 39.0093 16.6242Q38.8806 16.8293 38.705 17.0049Q38.5294 17.1806 38.3243 17.3093Q38.1808 17.3994 38.0229 17.4664Q37.8443 17.5423 37.6581 17.5837Z" fill="#FFFFFF" fill-opacity="1.000000" fill-rule="evenodd"/>
	<g opacity="0.000000"/>
</svg>
