<svg width="52" height="52" viewBox="0 0 52 52" fill="none" xmlns="http://www.w3.org/2000/svg">

    <!--Buttons-->

    <g id="eye">
        <path id="Vector"
              d="M17.7083 7.62494C15.7833 4.59994 12.9667 2.85828 10 2.85828C8.51667 2.85828 7.07501 3.29161 5.75834 4.09994C4.44167 4.91661 3.25834 6.10828 2.29167 7.62494C1.45834 8.93328 1.45834 11.0583 2.29167 12.3666C4.21667 15.3999 7.03334 17.1333 10 17.1333C11.4833 17.1333 12.925 16.6999 14.2417 15.8916C15.5583 15.0749 16.7417 13.8833 17.7083 12.3666C18.5417 11.0666 18.5417 8.93328 17.7083 7.62494ZM10 13.3666C8.13334 13.3666 6.63334 11.8583 6.63334 9.99994C6.63334 8.14161 8.13334 6.63328 10 6.63328C11.8667 6.63328 13.3667 8.14161 13.3667 9.99994C13.3667 11.8583 11.8667 13.3666 10 13.3666Z"
              fill="white"/>
        <path id="Vector_2"
              d="M10 7.6167C8.69167 7.6167 7.625 8.68337 7.625 10C7.625 11.3084 8.69167 12.375 10 12.375C11.3083 12.375 12.3833 11.3084 12.3833 10C12.3833 8.6917 11.3083 7.6167 10 7.6167Z"
              fill="white"/>
    </g>
    <g id="users">
        <path d="M10 9.99996C12.3012 9.99996 14.1667 8.13448 14.1667 5.83329C14.1667 3.53211 12.3012 1.66663 10 1.66663C7.69882 1.66663 5.83334 3.53211 5.83334 5.83329C5.83334 8.13448 7.69882 9.99996 10 9.99996Z"
              fill="white"/>
        <path d="M9.99999 12.0834C5.82499 12.0834 2.42499 14.8834 2.42499 18.3334C2.42499 18.5667 2.60832 18.75 2.84165 18.75H17.1583C17.3917 18.75 17.575 18.5667 17.575 18.3334C17.575 14.8834 14.175 12.0834 9.99999 12.0834Z"
              fill="white"/>
    </g>

    <!--About Me-->
    <g id="ruler">
        <defs/>
        <path id="Vector"
              d="M32.3225 39.8125L25.3225 39.8125C21.0875 39.8125 18.76 37.485 18.76 33.25L18.76 8.75C18.76 4.51501 21.0875 2.1875 25.3225 2.1875L32.3225 2.1875C36.5575 2.1875 38.885 4.51501 38.885 8.75L38.885 33.25C38.885 37.485 36.54 39.8125 32.3225 39.8125ZM25.3225 4.8125C22.5575 4.8125 21.385 5.98499 21.385 8.75L21.385 33.25C21.385 36.015 22.5575 37.1875 25.3225 37.1875L32.3225 37.1875C35.0875 37.1875 36.26 36.015 36.26 33.25L36.26 8.75C36.26 5.98499 35.0875 4.8125 32.3225 4.8125L25.3225 4.8125Z"
              fill="#FFFFFF" fill-opacity="1.000000" fill-rule="evenodd"/>
        <path id="Vector"
              d="M21.1393 9.1875L20.0725 9.1875C19.355 9.1875 18.76 9.78247 18.76 10.5C18.76 11.2175 19.355 11.8125 20.0725 11.8125L28.8225 11.8125C29.54 11.8125 30.135 11.2175 30.135 10.5C30.135 9.78247 29.54 9.1875 28.8225 9.1875L21.1393 9.1875Z"
              fill="#FFFFFF" fill-opacity="1.000000" fill-rule="evenodd"/>
        <path id="Vector"
              d="M21.1393 30.1875L20.0725 30.1875C19.355 30.1875 18.76 30.7825 18.76 31.5C18.76 32.2175 19.355 32.8125 20.0725 32.8125L27.0725 32.8125C27.79 32.8125 28.385 32.2175 28.385 31.5C28.385 30.7825 27.79 30.1875 27.0725 30.1875L21.1393 30.1875Z"
              fill="#FFFFFF" fill-opacity="1.000000" fill-rule="evenodd"/>
        <path id="Vector"
              d="M21.1378 23.1105L20.09 23.1L20.0725 23.1C19.355 23.1 18.76 23.6775 18.76 24.395C18.7425 25.13 19.3375 25.725 20.055 25.725L21.1174 25.7356L27.757 25.8018L28.8225 25.8125C29.54 25.8125 30.1175 25.235 30.135 24.5175C30.1525 23.7825 29.5575 23.1875 28.84 23.1875L27.7721 23.1768L21.1378 23.1105Z"
              fill="#FFFFFF" fill-opacity="1.000000" fill-rule="evenodd"/>
        <path id="Vector"
              d="M21.1393 16.1875L20.0725 16.1875C19.355 16.1875 18.76 16.7825 18.76 17.5C18.76 18.2175 19.355 18.8125 20.0725 18.8125L25.3225 18.8125C26.04 18.8125 26.635 18.2175 26.635 17.5C26.635 16.7825 26.04 16.1875 25.3225 16.1875L21.1393 16.1875Z"
              fill="#FFFFFF" fill-opacity="1.000000" fill-rule="evenodd"/>
        <path id="Vector"
              d="M9.60748 39.76C8.01498 39.76 6.51001 38.78 5.47748 37.065L4.04248 34.685C3.51752 33.81 3.11499 32.375 3.11499 31.36L3.11499 8.66248C3.11499 5.09253 6.02002 2.1875 9.59 2.1875C13.16 2.1875 16.065 5.09253 16.065 8.66248L16.065 31.3425C16.065 32.3575 15.6625 33.7925 15.1375 34.6675L13.7025 37.0475C12.705 38.78 11.2 39.76 9.60748 39.76ZM9.60748 4.8125C7.48999 4.8125 5.75751 6.54498 5.75751 8.66248L5.75751 31.3425C5.75751 31.885 6.02002 32.8475 6.29999 33.32L7.73499 35.7C8.2775 36.61 8.95999 37.1175 9.60748 37.1175C10.255 37.1175 10.9375 36.5925 11.48 35.7L12.915 33.32C13.195 32.8475 13.4575 31.885 13.4575 31.3425L13.4575 8.66248C13.4575 6.54498 11.725 4.8125 9.60748 4.8125Z"
              fill="#FFFFFF" fill-opacity="1.000000" fill-rule="evenodd"/>
        <path id="Vector"
              d="M5.49432 10.9375L4.42749 10.9375C3.70996 10.9375 3.11499 11.5325 3.11499 12.25C3.11499 12.9675 3.70996 13.5625 4.42749 13.5625L14.77 13.5625C15.4875 13.5625 16.0825 12.9675 16.0825 12.25C16.0825 11.5325 15.4875 10.9375 14.77 10.9375L5.49432 10.9375Z"
              fill="#FFFFFF" fill-opacity="1.000000" fill-rule="evenodd"/>
        <g opacity="0.000000">
            <path id="Vector" d="M0 0L42 0L42 42L0 42L0 0ZM3 39L3 3L39 3L39 39L3 39Z" fill="#FFFFFF"
                  fill-opacity="1.000000" fill-rule="evenodd"/>
        </g>

    </g>
    <g id="code">
        <path id="Vector"
              d="M19.5 28.1667C18.07 28.8817 16.8783 29.9434 15.99 31.265C15.4917 32.0234 15.4917 32.9767 15.99 33.735C16.8783 35.0567 18.07 36.1184 19.5 36.8334"
              stroke="white" stroke-width="3" stroke-linecap="round" stroke-linejoin="round"/>
        <path id="Vector_2"
              d="M32.955 28.1667C34.385 28.8817 35.5767 29.9434 36.465 31.265C36.9633 32.0234 36.9633 32.9767 36.465 33.735C35.5767 35.0567 34.385 36.1184 32.955 36.8334"
              stroke="white" stroke-width="3" stroke-linecap="round" stroke-linejoin="round"/>
        <path id="Vector_3"
              d="M4.33333 28.1666V32.5C4.33333 43.3333 8.66666 47.6666 19.5 47.6666H32.5C43.3333 47.6666 47.6667 43.3333 47.6667 32.5V19.5C47.6667 8.66665 43.3333 4.33331 32.5 4.33331H19.5C8.66666 4.33331 4.33333 8.66665 4.33333 19.5"
              stroke="white" stroke-width="3" stroke-linecap="round" stroke-linejoin="round"/>
        <path id="Vector_4" d="M4.83167 17.355L46.475 17.3333" stroke="white" stroke-width="3" stroke-linecap="round"
              stroke-linejoin="round"/>
    </g>
    <g id="android">
        <g opacity="0.580000"/>
        <path id="Vector" d="M26.4167 50.5L26.4167 56.25Q26.4167 56.3559 26.3822 56.449Q26.3394 56.5645 26.2436 56.6603Q26.1478 56.756 26.0324 56.7988Q25.9393 56.8333 25.8333 56.8333Q25.7274 56.8333 25.6343 56.7988Q25.5189 56.756 25.4231 56.6603Q25.3273 56.5645 25.2845 56.449Q25.25 56.3559 25.25 56.25L25.25 50.5L26.4167 50.5ZM28.4167 50.5L28.4167 56.25C28.4167 57.6708 27.2542 58.8333 25.8333 58.8333C24.4125 58.8333 23.25 57.6708 23.25 56.25L23.25 48.5L28.4167 48.5L28.4167 50.5Z" fill="#FFFFFF" fill-opacity="1.000000" fill-rule="evenodd"/>
        <path id="Vector" d="M36.75 50.5L36.75 56.25Q36.75 56.3559 36.7155 56.449Q36.6727 56.5645 36.5769 56.6603Q36.4811 56.756 36.3657 56.7988Q36.2726 56.8333 36.1666 56.8333Q36.0607 56.8333 35.9676 56.7988Q35.8522 56.756 35.7564 56.6603Q35.6606 56.5645 35.6178 56.449Q35.5833 56.3559 35.5833 56.25L35.5833 50.5L36.75 50.5ZM38.75 50.5L38.75 56.25C38.75 57.6708 37.5875 58.8333 36.1666 58.8333C34.7458 58.8333 33.5833 57.6708 33.5833 56.25L33.5833 48.5L38.75 48.5L38.75 50.5Z" fill="#FFFFFF" fill-opacity="1.000000" fill-rule="evenodd"/>
        <path id="Vector" d="M43.9166 41.3333L43.9166 28.4167C43.9166 25.575 41.5916 23.25 38.75 23.25L23.25 23.25C20.4083 23.25 18.0833 25.575 18.0833 28.4167L18.0833 41.3333C18.0833 44.175 20.4083 46.5 23.25 46.5L38.75 46.5C41.5916 46.5 43.9166 44.175 43.9166 41.3333ZM41.9166 28.4167L41.9166 41.3333Q41.9166 41.9591 41.7016 42.4993Q41.469 43.0838 40.9847 43.5681Q40.5004 44.0524 39.9159 44.285Q39.3757 44.5 38.75 44.5L23.25 44.5Q22.6242 44.5 22.084 44.285Q21.4995 44.0524 21.0152 43.5681Q20.5309 43.0838 20.2983 42.4993Q20.0833 41.9591 20.0833 41.3333L20.0833 28.4167Q20.0833 27.7909 20.2983 27.2507Q20.5309 26.6662 21.0152 26.1819Q21.4995 25.6976 22.084 25.465Q22.6242 25.25 23.25 25.25L38.75 25.25Q40.3333 25.25 41.125 26.0417Q41.9166 26.8333 41.9166 28.4167Z" fill="#FFFFFF" fill-opacity="1.000000" fill-rule="evenodd"/>
        <path id="Vector" d="M12.9167 38.7501L12.9167 28.4167C12.9167 26.9958 11.7542 25.8334 10.3333 25.8334C8.9125 25.8334 7.75 26.9958 7.75 28.4167L7.75 38.7501C7.75 40.1709 8.9125 41.3334 10.3333 41.3334C11.7542 41.3334 12.9167 40.1709 12.9167 38.7501ZM10.9167 28.4167L10.9167 38.7501Q10.9167 38.856 10.8822 38.9491Q10.8394 39.0645 10.7436 39.1603Q10.6478 39.2561 10.5324 39.2989Q10.4393 39.3334 10.3333 39.3334Q10.2274 39.3334 10.1343 39.2989Q10.0189 39.2561 9.92307 39.1603Q9.82728 39.0645 9.78451 38.9491Q9.75 38.856 9.75 38.7501L9.75 28.4167Q9.75 28.3108 9.78451 28.2177Q9.82728 28.1022 9.92307 28.0065Q10.0189 27.9106 10.1343 27.8679Q10.2274 27.8334 10.3333 27.8334Q10.4393 27.8334 10.5324 27.8679Q10.6478 27.9106 10.7436 28.0065Q10.8394 28.1022 10.8822 28.2177Q10.9167 28.3108 10.9167 28.4167Z" fill="#FFFFFF" fill-opacity="1.000000" fill-rule="evenodd"/>
        <path id="Vector" d="M54.25 38.7501L54.25 28.4167C54.25 26.9958 53.0875 25.8334 51.6666 25.8334C50.2458 25.8334 49.0833 26.9958 49.0833 28.4167L49.0833 38.7501C49.0833 40.1709 50.2458 41.3334 51.6666 41.3334C53.0875 41.3334 54.25 40.1709 54.25 38.7501ZM52.25 28.4167L52.25 38.7501Q52.25 38.856 52.2155 38.9491Q52.1727 39.0645 52.0769 39.1603Q51.9811 39.2561 51.8657 39.2989Q51.7726 39.3334 51.6666 39.3334Q51.5607 39.3334 51.4676 39.2989Q51.3522 39.2561 51.2564 39.1603Q51.1606 39.0645 51.1178 38.9491Q51.0833 38.856 51.0833 38.7501L51.0833 28.4167Q51.0833 28.3108 51.1178 28.2177Q51.1606 28.1022 51.2564 28.0065Q51.3522 27.9106 51.4676 27.8679Q51.5607 27.8334 51.6666 27.8334Q51.7726 27.8334 51.8657 27.8679Q51.9811 27.9106 52.0769 28.0065Q52.1727 28.1022 52.2155 28.2177Q52.25 28.3108 52.25 28.4167Z" fill="#FFFFFF" fill-opacity="1.000000" fill-rule="evenodd"/>
        <path id="Vector" d="M37.2001 19.6333L24.8 19.6333C22.5266 19.6333 20.6667 17.7733 20.6667 15.4999C20.6667 9.79077 25.2909 5.16663 31 5.16663C36.7092 5.16663 41.3334 9.79077 41.3334 15.4999C41.3334 17.7733 39.4734 19.6333 37.2001 19.6333ZM37.6581 17.5837Q37.4346 17.6333 37.2001 17.6333L24.8 17.6333Q24.5654 17.6333 24.342 17.5837Q24.1557 17.5423 23.9771 17.4664Q23.8193 17.3994 23.6758 17.3093Q23.4707 17.1806 23.2951 17.0049Q23.1195 16.8293 22.9908 16.6243Q22.9007 16.4808 22.8336 16.3229Q22.7577 16.1442 22.7163 15.9579Q22.6667 15.7345 22.6667 15.4999Q22.6667 14.5321 22.8792 13.6133Q23.0394 12.9205 23.3205 12.2557Q23.6135 11.5626 24.0186 10.9429Q24.4875 10.2256 25.1066 9.60657Q25.7257 8.98749 26.443 8.51855Q27.0627 8.11346 27.7557 7.8205Q28.4206 7.53937 29.1134 7.37915Q30.0322 7.16663 31 7.16663Q31.9679 7.16663 32.8866 7.37915Q33.5794 7.53937 34.2443 7.8205Q34.9373 8.11346 35.557 8.51855Q36.2743 8.98749 36.8934 9.60657Q37.5125 10.2257 37.9814 10.943Q38.3865 11.5627 38.6795 12.2557Q38.9606 12.9205 39.1208 13.6132Q39.3334 14.532 39.3334 15.4999Q39.3334 15.7345 39.2837 15.958Q39.2423 16.1443 39.1664 16.3229Q39.0994 16.4808 39.0093 16.6242Q38.8806 16.8293 38.705 17.0049Q38.5294 17.1806 38.3243 17.3093Q38.1808 17.3994 38.0229 17.4664Q37.8443 17.5423 37.6581 17.5837Z" fill="#FFFFFF" fill-opacity="1.000000" fill-rule="evenodd"/>
        <g opacity="0.000000"/>
    </g>
    <g id="python">
        <path id="Vector"
              d="M15.2916 16.2966H16.2916V15.2966V5.1801C16.2916 3.42393 17.577 1.91401 19.3503 1.63208C24.7457 0.79598 30.2492 0.795979 35.6446 1.63208C37.4179 1.91399 38.7033 3.42392 38.7033 5.1801V9.79851C38.7033 10.016 38.5462 10.173 38.3288 10.173H36.9543C35.6322 10.173 34.5797 11.2255 34.5797 12.5476V21.3996C34.5797 21.9469 34.1477 22.3789 33.6004 22.3789H21.3946C15.2067 22.3789 10.168 27.4175 10.168 33.6054V38.3338C10.168 38.5513 10.011 38.7083 9.7935 38.7083H5.1751C3.41891 38.7083 1.90898 37.4229 1.62707 35.6496C0.790974 30.2542 0.790975 24.7507 1.62708 19.3553C1.909 17.582 3.41892 16.2966 5.1751 16.2966H15.2916ZM19.7073 7.65424C19.7073 8.53161 20.1181 9.32458 20.6771 9.88363C21.2362 10.4427 22.0291 10.8535 22.9065 10.8535C23.7915 10.8535 24.591 10.4478 25.157 9.8866C25.7219 9.32641 26.1333 8.5322 26.1333 7.65424C26.1333 6.80854 25.7508 5.91702 25.1409 5.34057C24.5652 4.77197 23.7109 4.42751 22.9065 4.42751C22.0286 4.42751 21.2344 4.83884 20.6742 5.40376C20.1129 5.96971 19.7073 6.76923 19.7073 7.65424Z"
              stroke="white" stroke-width="2"/>
        <path id="Vector_2"
              d="M39.7034 38.7084H38.7034V39.7084V49.8249C38.7034 51.5811 37.4179 53.0911 35.6446 53.3729C30.2492 54.209 24.7458 54.209 19.3504 53.373C17.5771 53.0911 16.2917 51.5811 16.2917 49.8249V33.6055C16.2917 30.7764 18.5655 28.5025 21.3946 28.5025H33.6004C37.537 28.5025 40.7034 25.3028 40.7034 21.3996V16.6712C40.7034 16.4538 40.8604 16.2967 41.0779 16.2967H49.8199C51.5761 16.2967 53.086 17.5821 53.3679 19.3555C54.204 24.7508 54.204 30.2543 53.3679 35.6496C53.086 37.423 51.5761 38.7084 49.8199 38.7084H39.7034ZM34.3103 44.9978L34.3084 44.9961C33.7383 44.4667 32.8629 44.124 32.0885 44.124C31.2029 44.124 30.4021 44.5302 29.835 45.0973C29.2679 45.6644 28.8617 46.4652 28.8617 47.3508C28.8617 48.2441 29.2812 49.0449 29.8483 49.6072C30.4141 50.1684 31.213 50.5775 32.0885 50.5775C32.9674 50.5775 33.7614 50.1653 34.3242 49.5978C34.8888 49.0286 35.2944 48.2302 35.3149 47.3465L35.3152 47.3349V47.3233C35.3152 46.5058 34.9321 45.5782 34.3103 44.9978Z"
              stroke="white" stroke-width="2"/>
    </g>

    <!--Skills-->
    <g id="git">
        <path id="Vector" d="M20.15 35.65V24.8" stroke="#F5F5F5" stroke-width="3" stroke-linecap="round"
              stroke-linejoin="round"/>
        <path id="Vector_2"
              d="M20.5375 46.5C23.3197 46.5 25.5751 44.2446 25.5751 41.4625C25.5751 38.6803 23.3197 36.425 20.5375 36.425C17.7554 36.425 15.5 38.6803 15.5 41.4625C15.5 44.2446 17.7554 46.5 20.5375 46.5Z"
              stroke="#F5F5F5" stroke-width="3" stroke-linecap="round" stroke-linejoin="round"/>
        <path id="Vector_3"
              d="M20.15 24.8C22.7181 24.8 24.7999 22.7181 24.7999 20.15C24.7999 17.5818 22.7181 15.5 20.15 15.5C17.5818 15.5 15.5 17.5818 15.5 20.15C15.5 22.7181 17.5818 24.8 20.15 24.8Z"
              stroke="#F5F5F5" stroke-width="3" stroke-linecap="round" stroke-linejoin="round"/>
        <path id="Vector_4"
              d="M41.85 24.8C44.4182 24.8 46.5 22.7181 46.5 20.15C46.5 17.5818 44.4182 15.5 41.85 15.5C39.2819 15.5 37.2001 17.5818 37.2001 20.15C37.2001 22.7181 39.2819 24.8 41.85 24.8Z"
              stroke="#F5F5F5" stroke-width="3" stroke-linecap="round" stroke-linejoin="round"/>
        <path id="Vector_5"
              d="M20.3567 35.6499C21.0542 32.9374 23.5342 30.9225 26.4533 30.9483L31.775 30.9741C35.8308 30.9999 39.2925 28.3907 40.5584 24.7482"
              stroke="#F5F5F5" stroke-width="3" stroke-linecap="round" stroke-linejoin="round"/>
        <path id="Vector_6"
              d="M23.25 5.16661H38.75C51.6667 5.16661 56.8333 10.3333 56.8333 23.2499V38.7499C56.8333 51.6666 51.6667 56.8333 38.75 56.8333H23.25C10.3333 56.8333 5.16666 51.6666 5.16666 38.7499V23.2499C5.16666 10.3333 10.3333 5.16661 23.25 5.16661Z"
              stroke="#F5F5F5" stroke-width="3" stroke-linecap="round" stroke-linejoin="round"/>

    </g>
    <g id="js">
        <g id="javascript">
            <path id="Vector" d="M18.895 12.7725V32.9775L11.875 30.9525" stroke="white" stroke-width="3"
                  stroke-miterlimit="10" stroke-linecap="round" stroke-linejoin="round"/>
            <path id="Vector_2" d="M32.125 12.75L25.0374 13.7625V24.9L32.125 23.8875V30.975L24.0251 33" stroke="white"
                  stroke-width="3" stroke-miterlimit="10" stroke-linecap="round" stroke-linejoin="round"/>
            <path id="Vector_3"
                  d="M2.47008 8.04751L2.02005 3.9975C1.86255 2.67 2.92003 1.5 4.24753 1.5H39.7301C41.0801 1.5 42.115 2.67 41.9575 3.9975L37.9076 40.4925C37.8176 41.3925 37.165 42.1575 36.2875 42.405L22.6076 46.32C22.2026 46.4325 21.775 46.4325 21.37 46.32L7.6901 42.405C6.8126 42.1575 6.18252 41.3925 6.07002 40.4925L3.59508 18.1725"
                  stroke="white" stroke-width="3" stroke-miterlimit="10" stroke-linecap="round"
                  stroke-linejoin="round"/>
        </g>
    </g>
    <g id="slider">
        <g id="vuesax/slider">
            <g id="slider">
                <path id="Vector"
                      d="M36 32.02C37.1 32.02 38 32.92 38 34.02V36C38 40.4 35 44 30 44H18C13 44 10 40.4 10 36V34.02C10 32.92 10.9 32.02 12 32.02H36Z"
                      fill="white"/>
                <path id="Vector_2"
                      d="M38 12V27C38 28.1 37.1 29 36 29H12C10.9 29 10 28.1 10 27V12C10 7.60003 13 4.00003 18 4.00003H30C35 4.00003 38 7.60003 38 12Z"
                      fill="white"/>
                <path id="Vector_3"
                      d="M6 41.5C5.18 41.5 4.5 40.82 4.5 40V7.99997C4.5 7.17997 5.18 6.49997 6 6.49997C6.82 6.49997 7.5 7.17997 7.5 7.99997V40C7.5 40.82 6.82 41.5 6 41.5Z"
                      fill="white"/>
                <path id="Vector_4"
                      d="M42 41.5C41.18 41.5 40.5 40.82 40.5 40V7.99997C40.5 7.17997 41.18 6.49997 42 6.49997C42.82 6.49997 43.5 7.17997 43.5 7.99997V40C43.5 40.82 42.82 41.5 42 41.5Z"
                      fill="white"/>
            </g>
        </g>
    </g>

    <!--Contacts-->

    <g id="facebook">
        <g id="vuesax/bold/facebook">
            <g id="facebook">
                <path id="Vector"
                      d="M29.3334 21.5866C29.3334 26.44 26.44 29.3333 21.5867 29.3333H20C19.2667 29.3333 18.6667 28.7333 18.6667 28V20.3066C18.6667 19.9466 18.96 19.64 19.32 19.64L21.6667 19.6C21.8534 19.5866 22.0134 19.4533 22.0534 19.2666L22.52 16.72C22.56 16.48 22.3734 16.2533 22.12 16.2533L19.28 16.2933C18.9067 16.2933 18.6134 16 18.6 15.64L18.5467 12.3733C18.5467 12.16 18.72 11.9733 18.9467 11.9733L22.1467 11.92C22.3733 11.92 22.5467 11.7466 22.5467 11.52L22.4933 8.31995C22.4933 8.09328 22.32 7.91996 22.0934 7.91996L18.4933 7.97331C16.28 8.01331 14.52 9.82662 14.56 12.04L14.6267 15.7066C14.64 16.08 14.3467 16.3733 13.9734 16.3866L12.3734 16.4133C12.1467 16.4133 11.9734 16.5866 11.9734 16.8133L12.0134 19.3466C12.0134 19.5733 12.1867 19.7466 12.4134 19.7466L14.0134 19.72C14.3867 19.72 14.68 20.0133 14.6933 20.3733L14.8133 27.9733C14.8267 28.72 14.2267 29.3333 13.48 29.3333H10.4134C5.56002 29.3333 2.66669 26.44 2.66669 21.5733V10.4133C2.66669 5.55996 5.56002 2.66663 10.4134 2.66663H21.5867C26.44 2.66663 29.3334 5.55996 29.3334 10.4133V21.5866Z"
                      fill="#7562E0"/>
            </g>
        </g>
    </g>
    <g id="inst">
        <path d="M21.5867 2.66663H10.4133C5.55999 2.66663 2.66666 5.55996 2.66666 10.4133V21.5733C2.66666 26.44 5.55999 29.3333 10.4133 29.3333H21.5733C26.4267 29.3333 29.32 26.44 29.32 21.5866V10.4133C29.3333 5.55996 26.44 2.66663 21.5867 2.66663ZM16 21.1733C13.1467 21.1733 10.8267 18.8533 10.8267 16C10.8267 13.1466 13.1467 10.8266 16 10.8266C18.8533 10.8266 21.1733 13.1466 21.1733 16C21.1733 18.8533 18.8533 21.1733 16 21.1733ZM23.8933 9.17329C23.8267 9.33329 23.7333 9.47996 23.6133 9.61329C23.48 9.73329 23.3333 9.82663 23.1733 9.89329C23.0133 9.95996 22.84 9.99996 22.6667 9.99996C22.3067 9.99996 21.9733 9.86663 21.72 9.61329C21.6 9.47996 21.5067 9.33329 21.44 9.17329C21.3733 9.01329 21.3333 8.83996 21.3333 8.66663C21.3333 8.49329 21.3733 8.31996 21.44 8.15996C21.5067 7.98663 21.6 7.85329 21.72 7.71996C22.0267 7.41329 22.4933 7.26663 22.92 7.35996C23.0133 7.37329 23.0933 7.39996 23.1733 7.43996C23.2533 7.46663 23.3333 7.50663 23.4133 7.55996C23.48 7.59996 23.5467 7.66663 23.6133 7.71996C23.7333 7.85329 23.8267 7.98663 23.8933 8.15996C23.96 8.31996 24 8.49329 24 8.66663C24 8.83996 23.96 9.01329 23.8933 9.17329Z"
              fill="#7562E0"/>
    </g>
    <g id="dribble">
        <path fill-rule="evenodd" clip-rule="evenodd"
              d="M21.1733 27.8934C21.2133 28.1067 21.0933 28.3334 20.8933 28.4134C19.3866 29.0134 17.7333 29.3334 16.0267 29.3334C13.08 29.3334 10.36 28.3867 8.15996 26.76C7.9733 26.6267 7.92001 26.36 8.04001 26.16C8.77334 24.8534 11.6399 20.6534 17.9733 18.3067C18.2133 18.2134 18.4799 18.3333 18.5599 18.5733C20.1466 22.8267 20.8933 26.4267 21.1733 27.8934Z"
              fill="#7562E0"/>
        <path fill-rule="evenodd" clip-rule="evenodd"
              d="M29.0934 18.52C28.4801 21.8 26.64 24.6533 24.0667 26.6C23.7867 26.8133 23.3867 26.6533 23.32 26.32C23.04 24.88 22.36 21.7733 21.0533 18.08C20.96 17.8 21.1467 17.4933 21.4401 17.4533C24.7601 17.0533 27.6667 17.6933 28.7601 17.9866C28.9867 18.0666 29.1334 18.2933 29.0934 18.52Z"
              fill="#7562E0"/>
        <path fill-rule="evenodd" clip-rule="evenodd"
              d="M28.7867 15.76C27.4268 15.52 23.96 15.0133 20.4134 15.4C20.2 15.4267 20.0134 15.3067 19.9201 15.1067C19.8667 14.9867 19.8267 14.8667 19.7734 14.7467C19.5601 14.2534 19.3334 13.7467 19.1067 13.2534C18.9867 13.0134 19.1067 12.72 19.3467 12.6134C23.0801 11 25.16 8.92002 25.9734 7.98668C26.1734 7.76002 26.5201 7.77338 26.7068 8.01338C28.2401 10.0534 29.1867 12.5467 29.3334 15.24C29.3467 15.5734 29.0801 15.8134 28.7867 15.76Z"
              fill="#7562E0"/>
        <path fill-rule="evenodd" clip-rule="evenodd"
              d="M24.5867 6.38672C23.8934 7.22672 21.9467 9.22669 18.2534 10.6934C18.04 10.7867 17.7867 10.6934 17.6667 10.48C15.96 7.38669 14.1467 4.7867 13.3067 3.61336C13.1067 3.33336 13.2667 2.93338 13.6 2.88005C14.3734 2.74671 15.1867 2.68005 16.0134 2.68005C19.24 2.68005 22.2134 3.8267 24.5201 5.7467C24.7201 5.89337 24.7467 6.18672 24.5867 6.38672Z"
              fill="#7562E0"/>
        <path fill-rule="evenodd" clip-rule="evenodd"
              d="M14.6934 11.7867C9.64003 13.0534 5.1733 13.2267 3.54663 13.2534C3.23997 13.2534 3.01335 12.96 3.09335 12.6667C4.05335 8.93338 6.61332 5.81339 9.98666 4.09339C10.1867 3.98673 10.44 4.05337 10.5733 4.24004C11.2667 5.20004 13.1467 7.90673 14.9867 11.0934C15.1333 11.3601 15 11.7067 14.6934 11.7867Z"
              fill="#7562E0"/>
        <path fill-rule="evenodd" clip-rule="evenodd"
              d="M17.2267 15.4667C17.3467 15.72 17.2 16.0266 16.9334 16.12C11.0267 18.0266 7.49335 22.76 6.42669 24.3867C6.25335 24.6533 5.88002 24.6667 5.68002 24.4267C3.81336 22.1333 2.68002 19.5066 2.68002 16.32V16.08C2.68002 15.8133 2.89334 15.6 3.16 15.6133C4.84 15.68 10.32 15.4533 16.0134 13.8133C16.2267 13.7466 16.4667 13.8533 16.56 14.0533C16.7867 14.52 17.0133 14.9867 17.2267 15.4667Z"
              fill="#7562E0"/>

    </g>
    <g id="sms">
        <path d="M22.6667 4.66663H9.33332C5.33332 4.66663 2.66666 6.66663 2.66666 11.3333V20.6666C2.66666 25.3333 5.33332 27.3333 9.33332 27.3333H22.6667C26.6667 27.3333 29.3333 25.3333 29.3333 20.6666V11.3333C29.3333 6.66663 26.6667 4.66663 22.6667 4.66663ZM23.2933 12.7866L19.12 16.12C18.24 16.8266 17.12 17.1733 16 17.1733C14.88 17.1733 13.7467 16.8266 12.88 16.12L8.70666 12.7866C8.27999 12.44 8.21332 11.8 8.54666 11.3733C8.89332 10.9466 9.51999 10.8666 9.94666 11.2133L14.12 14.5466C15.1333 15.36 16.8533 15.36 17.8667 14.5466L22.04 11.2133C22.4667 10.8666 23.1067 10.9333 23.44 11.3733C23.7867 11.8 23.72 12.44 23.2933 12.7866Z"
              fill="#7562E0"/>
    </g>
</svg>
